<svg xmlns="http://www.w3.org/2000/svg" xmlns:xlink="http://www.w3.org/1999/xlink" version="1.1" width="256" height="256" viewBox="0 0 256 256" xml:space="preserve">
<g style="stroke: none; stroke-width: 0; stroke-dasharray: none; stroke-linecap: butt; stroke-linejoin: miter; stroke-miterlimit: 10; fill: none; fill-rule: nonzero; opacity: 1;" transform="translate(1.4065934065934016 1.4065934065934016) scale(2.81 2.81)">
	<path d="M 38.213 79.651 c -0.53 0 -1.039 -0.211 -1.414 -0.586 L 6.611 48.877 C 2.348 44.614 0 38.947 0 32.918 S 2.348 21.223 6.611 16.96 c 4.261 -4.263 9.928 -6.611 15.958 -6.611 c 5.882 0 11.42 2.235 15.645 6.302 c 4.225 -4.067 9.762 -6.302 15.644 -6.302 c 6.028 0 11.696 2.348 15.959 6.61 c 3.895 3.894 6.221 9.085 6.549 14.617 c 0.034 0.569 -0.177 1.126 -0.579 1.53 c -0.401 0.403 -0.948 0.614 -1.527 0.586 l -0.236 -0.015 c -0.149 -0.01 -0.299 -0.021 -0.448 -0.021 c -3.318 0 -6.438 1.292 -8.786 3.64 l -0.771 0.771 c -0.781 0.78 -2.047 0.78 -2.828 0 l -0.771 -0.771 c -2.347 -2.347 -5.467 -3.64 -8.786 -3.64 s -6.439 1.292 -8.785 3.64 c -2.347 2.347 -3.64 5.467 -3.64 8.786 c 0 3.318 1.293 6.439 3.64 8.786 l 0 0 l 9.075 9.075 c 0.781 0.781 0.781 2.047 0 2.828 L 39.627 79.065 C 39.252 79.44 38.744 79.651 38.213 79.651 z M 22.569 14.349 c -4.961 0 -9.624 1.932 -13.129 5.439 C 5.932 23.295 4 27.958 4 32.918 s 1.932 9.623 5.439 13.13 l 28.774 28.774 l 9.464 -9.466 l -7.661 -7.661 c -3.103 -3.103 -4.812 -7.228 -4.812 -11.614 c 0 -4.388 1.709 -8.512 4.812 -11.614 c 3.101 -3.103 7.225 -4.812 11.614 -4.812 c 4.092 0 7.954 1.485 10.972 4.201 c 2.661 -2.394 5.977 -3.832 9.527 -4.139 c -0.651 -3.757 -2.437 -7.226 -5.142 -9.931 c -3.507 -3.507 -8.171 -5.439 -13.131 -5.439 s -9.623 1.932 -13.13 5.438 l -1.1 1.1 c -0.78 0.781 -2.048 0.781 -2.828 0 l -1.1 -1.1 C 32.193 16.28 27.53 14.349 22.569 14.349 z" style="stroke: none; stroke-width: 1; stroke-dasharray: none; stroke-linecap: butt; stroke-linejoin: miter; stroke-miterlimit: 10; fill: rgb(0,0,0); fill-rule: nonzero; opacity: 1;" transform=" matrix(1 0 0 1 0 0) " stroke-linecap="round"/>
	<path d="M 21.65 27.667 c -0.189 0 -0.371 -0.075 -0.505 -0.209 l -7.559 -7.559 c -1.108 -1.108 -1.718 -2.581 -1.718 -4.147 c 0 -1.567 0.61 -3.039 1.718 -4.147 c 1.107 -1.108 2.58 -1.718 4.147 -1.718 c 1.461 0 2.84 0.53 3.917 1.5 c 1.078 -0.969 2.457 -1.5 3.917 -1.5 c 1.567 0 3.039 0.61 4.147 1.718 c 1.108 1.108 1.718 2.58 1.718 4.147 c 0 1.566 -0.61 3.039 -1.718 4.147 l -7.559 7.559 C 22.021 27.592 21.84 27.667 21.65 27.667 z M 17.733 11.315 c -1.185 0 -2.299 0.461 -3.137 1.3 c -0.838 0.838 -1.3 1.952 -1.3 3.137 c 0 1.185 0.462 2.299 1.3 3.137 l 7.054 7.054 l 7.054 -7.054 c 0.838 -0.838 1.3 -1.952 1.3 -3.137 c 0 -1.185 -0.462 -2.299 -1.3 -3.137 c -0.838 -0.838 -1.952 -1.299 -3.137 -1.299 c -1.185 0 -2.299 0.461 -3.137 1.299 l -0.275 0.275 c -0.268 0.268 -0.743 0.268 -1.01 0 l -0.275 -0.276 C 20.032 11.777 18.918 11.315 17.733 11.315 z" style="stroke: none; stroke-width: 1; stroke-dasharray: none; stroke-linecap: butt; stroke-linejoin: miter; stroke-miterlimit: 10; fill: rgb(0,0,0); fill-rule: nonzero; opacity: 1;" transform=" matrix(2.8008 0 0 2.8008 1.9639999999999986 1.9639999999999702) " stroke-linecap="round"/>
</g>
</svg>