<svg xmlns="http://www.w3.org/2000/svg" xmlns:xlink="http://www.w3.org/1999/xlink" version="1.1" width="256" height="256" viewBox="0 0 256 256" xml:space="preserve">
<g style="stroke: none; stroke-width: 0; stroke-dasharray: none; stroke-linecap: butt; stroke-linejoin: miter; stroke-miterlimit: 10; fill: none; fill-rule: nonzero; opacity: 1;" transform="translate(1.4065934065934016 1.4065934065934016) scale(2.81 2.81)">
	<path d="M 20.254 13.182 c -6.896 -0.181 -13.305 3.147 -17.207 9.147 c -1.285 1.976 -2.184 4.195 -2.643 6.507 C -0.934 35.568 1.105 42.17 5.776 46.84 L 34.635 75.7 c 1.5 1.5 3.932 1.5 5.432 0 l 6.243 -6.244 l -7.464 -7.464 c -3.496 -3.496 -5.762 -8.108 -6.056 -13.043 c -0.341 -5.717 1.73 -11.15 5.74 -15.16 c 3.722 -3.725 8.675 -5.776 13.942 -5.776 c 4.555 0 8.872 1.534 12.366 4.356 c 2.696 -2.178 5.883 -3.588 9.289 -4.119 c -0.843 -3.507 -2.63 -6.726 -5.2 -9.298 c -4.011 -4.01 -9.444 -6.08 -15.162 -5.739 c -4.936 0.294 -9.548 2.561 -13.045 6.057 l -0.922 0.922 c -1.346 1.346 -3.55 1.346 -4.896 0 l -0.904 -0.904 C 30.332 15.619 25.438 13.318 20.254 13.182 z" style="stroke: none; stroke-width: 1; stroke-dasharray: none; stroke-linecap: butt; stroke-linejoin: miter; stroke-miterlimit: 10; fill: rgb(0,0,0); fill-rule: nonzero; opacity: 1;" transform=" matrix(1 0 0 1 0 0) " stroke-linecap="round"/>
	<path d="M 53.315 34.962 c -5.058 -0.322 -9.777 2.264 -12.291 6.981 c -0.316 0.592 -0.573 1.217 -0.764 1.86 c -1.434 4.805 -0.165 9.647 3.165 12.977 l 18.698 18.697 c 1.5 1.5 3.932 1.5 5.431 0 l 18.432 -18.431 c 2.27 -2.27 3.778 -5.253 3.986 -8.457 c 0.327 -5.057 -2.252 -9.779 -6.965 -12.299 c -0.592 -0.316 -1.217 -0.574 -1.859 -0.766 c -4.811 -1.441 -9.658 -0.174 -12.992 3.16 l -0.87 0.87 c -1.351 1.352 -3.542 1.352 -4.893 0.002 l -0.61 -0.61 C 59.509 36.673 56.522 35.166 53.315 34.962 z" style="stroke: none; stroke-width: 1; stroke-dasharray: none; stroke-linecap: butt; stroke-linejoin: miter; stroke-miterlimit: 10; fill: rgb(0,0,0); fill-rule: nonzero; opacity: 1;" transform=" matrix(1 0 0 1 0 0) " stroke-linecap="round"/>
</g>
</svg>