<svg xmlns="http://www.w3.org/2000/svg" xmlns:xlink="http://www.w3.org/1999/xlink" version="1.1" width="256" height="256" viewBox="0 0 256 256" xml:space="preserve">
<g style="stroke: none; stroke-width: 0; stroke-dasharray: none; stroke-linecap: butt; stroke-linejoin: miter; stroke-miterlimit: 10; fill: rgb(0,0,0); fill-rule: nonzero; opacity: 1;" transform="translate(0 -2.842170943040401e-14) scale(2.81 2.81)">
	<circle cx="45" cy="45" r="45" style="stroke: none; stroke-width: 1; stroke-dasharray: none; stroke-linecap: butt; stroke-linejoin: miter; stroke-miterlimit: 10; fill: rgb(0,0,0); fill-rule: nonzero; opacity: 1;" transform="  matrix(1 0 0 1 0 0) "/>
</g>
<g style="stroke: none; stroke-width: 0; stroke-dasharray: none; stroke-linecap: butt; stroke-linejoin: miter; stroke-miterlimit: 10; fill: none; fill-rule: nonzero; opacity: 1;" transform="translate(46.17984832069338 46.17984832069335) scale(1.82 1.82)">
	<ellipse cx="24.493000000000002" cy="26.533" rx="9.603" ry="9.603" style="stroke: none; stroke-width: 1; stroke-dasharray: none; stroke-linecap: butt; stroke-linejoin: miter; stroke-miterlimit: 10; fill: rgb(255,255,255); fill-rule: nonzero; opacity: 1;" transform=" matrix(0.7071 -0.7071 0.7071 0.7071 -11.5896 25.0933) "/>
	<path d="M 71.142 40.269 h -5.638 h -4.159 c -6.823 0 -12.354 -5.531 -12.354 -12.353 v -4.353 c 0 -0.551 -0.112 -1.076 -0.314 -1.554 c -0.101 -0.239 -0.225 -0.466 -0.368 -0.678 c -0.287 -0.425 -0.653 -0.791 -1.078 -1.078 c -0.637 -0.43 -1.405 -0.682 -2.231 -0.682 s -1.594 0.251 -2.231 0.682 c -0.425 0.287 -0.791 0.653 -1.078 1.078 c -0.143 0.212 -0.267 0.439 -0.368 0.678 c -0.202 0.477 -0.314 1.002 -0.314 1.554 v 4.353 c -0.001 6.822 -5.532 12.353 -12.354 12.353 h -4.159 h -5.638 C 8.443 40.269 0 48.712 0 59.127 v 5.802 c 0 2.204 1.787 3.991 3.991 3.991 h 0 c 2.204 0 3.991 -1.787 3.991 -3.991 v -4.352 c 0 -3.4 1.375 -6.479 3.598 -8.713 v 19.37 c 0 1.012 0.82 1.832 1.832 1.832 H 35.58 c 1.012 0 1.832 -0.82 1.832 -1.832 V 46.764 c 3.009 -1.26 5.61 -3.287 7.589 -5.825 c 1.978 2.538 4.579 4.564 7.589 5.825 v 24.471 c 0 1.012 0.82 1.832 1.832 1.832 h 22.169 c 1.012 0 1.832 -0.82 1.832 -1.832 v -19.37 c 2.223 2.234 3.598 5.312 3.598 8.713 v 4.352 c 0 2.204 1.787 3.991 3.991 3.991 h 0 c 2.204 0 3.991 -1.787 3.991 -3.991 v -5.802 C 90 48.712 81.557 40.269 71.142 40.269 z" style="stroke: none; stroke-width: 1; stroke-dasharray: none; stroke-linecap: butt; stroke-linejoin: miter; stroke-miterlimit: 10; fill: rgb(255,255,255); fill-rule: nonzero; opacity: 1;" transform=" matrix(1 0 0 1 0 0) " stroke-linecap="round"/>
	<ellipse cx="65.503" cy="26.533" rx="9.603" ry="9.603" style="stroke: none; stroke-width: 1; stroke-dasharray: none; stroke-linecap: butt; stroke-linejoin: miter; stroke-miterlimit: 10; fill: rgb(255,255,255); fill-rule: nonzero; opacity: 1;" transform=" matrix(0.9732 -0.2298 0.2298 0.9732 -4.3446 15.7598) "/>
</g>
</svg>