<svg xmlns="http://www.w3.org/2000/svg" xmlns:xlink="http://www.w3.org/1999/xlink" version="1.1" width="256" height="256" viewBox="0 0 256 256" xml:space="preserve">
<g style="stroke: none; stroke-width: 0; stroke-dasharray: none; stroke-linecap: butt; stroke-linejoin: miter; stroke-miterlimit: 10; fill: none; fill-rule: nonzero; opacity: 1;" transform="translate(1.4065934065934016 1.4065934065934016) scale(2.81 2.81)">
	<path d="M 10.383 81.813 c -0.512 0 -1.023 -0.195 -1.414 -0.586 c -0.781 -0.781 -0.781 -2.047 0 -2.828 l 52.548 -52.549 c 0.781 -0.781 2.047 -0.781 2.828 0 c 0.781 0.781 0.781 2.047 0 2.828 L 11.797 81.228 C 11.407 81.618 10.895 81.813 10.383 81.813 z" style="stroke: none; stroke-width: 1; stroke-dasharray: none; stroke-linecap: butt; stroke-linejoin: miter; stroke-miterlimit: 10; fill: rgb(0,0,0); fill-rule: nonzero; opacity: 1;" transform=" matrix(1 0 0 1 0 0) " stroke-linecap="round"/>
	<path d="M 64.43 68.183 c -0.188 0 -0.379 -0.027 -0.567 -0.083 c -9.486 -2.804 -19.014 -10.429 -25.336 -16.332 c -0.808 -0.754 -0.851 -2.02 -0.097 -2.827 c 0.754 -0.809 2.019 -0.853 2.827 -0.097 c 6.007 5.609 15.002 12.838 23.74 15.42 c 1.06 0.313 1.665 1.426 1.352 2.484 C 66.09 67.618 65.293 68.183 64.43 68.183 z" style="stroke: none; stroke-width: 1; stroke-dasharray: none; stroke-linecap: butt; stroke-linejoin: miter; stroke-miterlimit: 10; fill: rgb(0,0,0); fill-rule: nonzero; opacity: 1;" transform=" matrix(1 0 0 1 0 0) " stroke-linecap="round"/>
	<path d="M 39.891 52.306 c -0.535 0 -1.068 -0.213 -1.462 -0.635 C 32.525 45.348 24.9 35.82 22.097 26.335 c -0.313 -1.06 0.292 -2.172 1.351 -2.485 c 1.057 -0.314 2.171 0.292 2.485 1.351 c 2.582 8.737 9.811 17.732 15.42 23.739 c 0.754 0.808 0.71 2.073 -0.097 2.827 C 40.87 52.128 40.38 52.306 39.891 52.306 z" style="stroke: none; stroke-width: 1; stroke-dasharray: none; stroke-linecap: butt; stroke-linejoin: miter; stroke-miterlimit: 10; fill: rgb(0,0,0); fill-rule: nonzero; opacity: 1;" transform=" matrix(1 0 0 1 0 0) " stroke-linecap="round"/>
	<path d="M 52.373 90.196 c -0.118 0 -0.237 -0.011 -0.356 -0.032 c -9.531 -1.726 -24.94 -14.298 -26.501 -25.482 C 14.329 63.122 1.758 47.712 0.032 38.18 c -0.146 -0.802 0.21 -1.611 0.898 -2.046 c 0.689 -0.436 1.572 -0.409 2.234 0.064 c 5.056 3.623 7.808 4.952 12.618 4.493 C 8.858 32.93 4.882 23.735 3.949 13.305 c -0.069 -0.775 0.317 -1.52 0.99 -1.909 c 0.672 -0.39 1.51 -0.354 2.148 0.092 c 2.761 1.932 5.216 3.174 7.553 3.809 c -0.233 -4.396 0.498 -8.608 2.184 -12.557 c 0.307 -0.719 1.004 -1.193 1.785 -1.214 c 0.785 -0.023 1.502 0.414 1.849 1.114 c 1.946 3.947 3.939 6.635 6.156 8.271 c 1.156 -2.984 3.225 -6.138 6.178 -9.41 c 0.545 -0.603 1.401 -0.815 2.164 -0.542 c 0.764 0.276 1.286 0.987 1.319 1.799 c 0.427 10.382 1.824 18.347 4.349 24.626 c 4.484 -9.51 11.445 -18.281 21.169 -26.702 c 0.632 -0.545 1.533 -0.642 2.266 -0.245 c 0.731 0.398 1.141 1.209 1.024 2.034 c -0.629 4.488 -0.276 7.64 1.228 10.379 c 3.69 -2.134 7.998 -3.639 13.373 -4.685 c 0.652 -0.127 1.325 0.079 1.796 0.549 s 0.676 1.144 0.549 1.796 c -1.046 5.375 -2.55 9.681 -4.685 13.373 c 2.739 1.505 5.893 1.854 10.379 1.228 c 0.815 -0.116 1.636 0.292 2.034 1.025 c 0.398 0.732 0.301 1.634 -0.245 2.265 c -8.419 9.725 -17.19 16.686 -26.701 21.169 c 6.281 2.526 14.245 3.923 24.626 4.35 c 0.812 0.033 1.523 0.555 1.799 1.318 c 0.276 0.765 0.063 1.62 -0.541 2.164 c -3.271 2.953 -6.425 5.022 -9.409 6.179 c 1.636 2.217 4.324 4.21 8.271 6.156 c 0.7 0.346 1.136 1.067 1.114 1.849 s -0.495 1.479 -1.214 1.785 c -3.949 1.686 -8.167 2.418 -12.557 2.183 c 0.634 2.337 1.877 4.792 3.809 7.553 c 0.446 0.638 0.481 1.476 0.092 2.148 c -0.39 0.674 -1.139 1.055 -1.908 0.99 c -10.431 -0.933 -19.625 -4.909 -27.386 -11.834 c -0.459 4.813 0.87 7.563 4.493 12.618 c 0.475 0.662 0.5 1.546 0.064 2.234 C 53.692 89.852 53.051 90.196 52.373 90.196 z M 27.387 60.81 c 0.53 0 1.039 0.211 1.414 0.586 c 0.378 0.378 0.589 0.892 0.586 1.427 c -0.046 7.168 9.694 17.309 18.188 21.568 c -2.287 -4.323 -2.716 -8.146 -1.396 -14.474 c 0.151 -0.726 0.69 -1.308 1.402 -1.513 c 0.709 -0.208 1.478 -0.003 1.993 0.53 c 6.637 6.858 14.545 11.145 23.556 12.774 c -1.547 -2.859 -2.406 -5.53 -2.66 -8.209 c -0.058 -0.609 0.167 -1.211 0.609 -1.635 c 0.443 -0.423 1.057 -0.615 1.66 -0.534 c 3.102 0.437 6.103 0.335 8.966 -0.296 c -3.595 -2.326 -5.935 -4.867 -7.239 -7.821 c -0.243 -0.551 -0.226 -1.181 0.047 -1.717 c 0.273 -0.536 0.773 -0.921 1.361 -1.047 c 1.905 -0.41 3.963 -1.362 6.147 -2.845 c -10.644 -0.849 -18.687 -2.9 -25.043 -6.358 c -0.684 -0.372 -1.09 -1.107 -1.04 -1.885 s 0.547 -1.455 1.272 -1.736 c 9.269 -3.598 17.813 -9.58 26.008 -18.228 c -3.162 -0.103 -6.581 -0.894 -9.805 -3.301 c -0.852 -0.636 -1.057 -1.828 -0.467 -2.712 c 1.965 -2.944 3.417 -6.37 4.486 -10.622 c -4.253 1.07 -7.679 2.522 -10.622 4.486 c -0.887 0.59 -2.077 0.384 -2.713 -0.467 c -2.406 -3.223 -3.197 -6.644 -3.3 -9.804 c -8.649 8.196 -14.632 16.74 -18.229 26.007 c -0.282 0.726 -0.959 1.223 -1.736 1.272 c -0.781 0.048 -1.513 -0.356 -1.885 -1.041 c -3.457 -6.354 -5.509 -14.398 -6.358 -25.042 c -1.482 2.186 -2.435 4.242 -2.845 6.147 c -0.126 0.588 -0.511 1.088 -1.047 1.361 c -0.536 0.273 -1.167 0.29 -1.716 0.048 c -2.954 -1.305 -5.495 -3.645 -7.821 -7.239 c -0.632 2.864 -0.732 5.865 -0.296 8.966 c 0.085 0.606 -0.112 1.218 -0.535 1.66 c -0.423 0.442 -1.021 0.664 -1.635 0.609 c -2.679 -0.254 -5.35 -1.114 -8.209 -2.661 c 1.631 9.011 5.917 16.919 12.775 23.556 c 0.532 0.515 0.736 1.282 0.531 1.993 c -0.206 0.711 -0.788 1.251 -1.513 1.402 c -6.33 1.32 -10.15 0.891 -14.475 -1.396 c 4.25 8.474 14.353 18.188 21.518 18.188 C 27.344 60.81 27.362 60.809 27.387 60.81 z" style="stroke: none; stroke-width: 1; stroke-dasharray: none; stroke-linecap: butt; stroke-linejoin: miter; stroke-miterlimit: 10; fill: rgb(0,0,0); fill-rule: nonzero; opacity: 1;" transform=" matrix(1 0 0 1 0 0) " stroke-linecap="round"/>
</g>
</svg>