<svg xmlns="http://www.w3.org/2000/svg" xmlns:xlink="http://www.w3.org/1999/xlink" version="1.1" width="256" height="256" viewBox="0 0 256 256" xml:space="preserve">
<g style="stroke: none; stroke-width: 0; stroke-dasharray: none; stroke-linecap: butt; stroke-linejoin: miter; stroke-miterlimit: 10; fill: none; fill-rule: nonzero; opacity: 1;" transform="translate(1.4065934065934016 1.4065934065934016) scale(2.81 2.81)">
	<path d="M 11.188 82.008 c -0.768 0 -1.536 -0.293 -2.121 -0.879 c -1.172 -1.171 -1.172 -3.071 0 -4.242 l 51.326 -51.326 c 1.172 -1.172 3.07 -1.172 4.242 0 c 1.172 1.171 1.172 3.071 0 4.242 L 13.31 81.129 C 12.724 81.715 11.956 82.008 11.188 82.008 z" style="stroke: none; stroke-width: 1; stroke-dasharray: none; stroke-linecap: butt; stroke-linejoin: miter; stroke-miterlimit: 10; fill: rgb(0,0,0); fill-rule: nonzero; opacity: 1;" transform=" matrix(1 0 0 1 0 0) " stroke-linecap="round"/>
	<path d="M 63.978 68.694 c -0.281 0 -0.567 -0.04 -0.851 -0.124 c -9.462 -2.795 -18.907 -10.348 -25.165 -16.191 c -1.211 -1.131 -1.276 -3.029 -0.146 -4.24 c 1.132 -1.21 3.03 -1.275 4.24 -0.145 c 5.785 5.402 14.432 12.358 22.77 14.822 c 1.59 0.47 2.497 2.138 2.027 3.727 C 66.468 67.849 65.273 68.694 63.978 68.694 z" style="stroke: none; stroke-width: 1; stroke-dasharray: none; stroke-linecap: butt; stroke-linejoin: miter; stroke-miterlimit: 10; fill: rgb(0,0,0); fill-rule: nonzero; opacity: 1;" transform=" matrix(1 0 0 1 0 0) " stroke-linecap="round"/>
	<path d="M 40.01 53.187 c -0.802 0 -1.603 -0.32 -2.193 -0.952 c -5.842 -6.257 -13.394 -15.702 -16.191 -25.165 c -0.47 -1.589 0.438 -3.257 2.027 -3.727 c 1.587 -0.469 3.258 0.437 3.727 2.027 c 2.465 8.339 9.421 16.985 14.823 22.769 c 1.13 1.211 1.065 3.109 -0.146 4.24 C 41.479 52.919 40.743 53.187 40.01 53.187 z" style="stroke: none; stroke-width: 1; stroke-dasharray: none; stroke-linecap: butt; stroke-linejoin: miter; stroke-miterlimit: 10; fill: rgb(0,0,0); fill-rule: nonzero; opacity: 1;" transform=" matrix(1 0 0 1 0 0) " stroke-linecap="round"/>
	<path d="M 52.203 90.196 c -0.178 0 -0.356 -0.016 -0.535 -0.048 c -9.383 -1.699 -24.41 -13.876 -26.602 -25.018 C 13.923 62.94 1.747 47.913 0.048 38.529 c -0.218 -1.203 0.315 -2.417 1.348 -3.07 c 1.032 -0.654 2.357 -0.616 3.352 0.097 c 4.054 2.905 6.481 4.151 9.518 4.279 C 8.221 32.444 4.728 23.826 3.861 14.14 c -0.104 -1.162 0.476 -2.279 1.485 -2.863 c 1.01 -0.585 2.267 -0.531 3.223 0.138 c 2.059 1.44 3.926 2.47 5.689 3.128 C 14.245 10.632 15 6.871 16.517 3.317 c 0.46 -1.078 1.505 -1.789 2.677 -1.821 c 1.167 -0.036 2.254 0.621 2.772 1.672 c 1.513 3.067 3.037 5.31 4.667 6.838 c 1.231 -2.635 3.126 -5.375 5.665 -8.189 c 0.817 -0.905 2.103 -1.225 3.246 -0.812 c 1.146 0.414 1.929 1.48 1.979 2.698 c 0.363 8.811 1.443 15.802 3.343 21.453 c 4.448 -8.581 10.991 -16.557 19.852 -24.228 c 0.946 -0.819 2.298 -0.964 3.397 -0.367 c 1.099 0.598 1.711 1.813 1.537 3.052 c -0.507 3.615 -0.333 6.273 0.624 8.539 c 3.483 -1.857 7.502 -3.196 12.4 -4.15 c 0.979 -0.191 1.99 0.118 2.694 0.824 c 0.706 0.705 1.015 1.715 0.823 2.694 c -0.953 4.899 -2.293 8.917 -4.149 12.4 c 2.265 0.957 4.922 1.13 8.539 0.625 c 1.234 -0.171 2.454 0.439 3.052 1.538 c 0.597 1.098 0.451 2.452 -0.367 3.397 c -7.671 8.86 -15.647 15.403 -24.228 19.851 c 5.649 1.9 12.641 2.98 21.451 3.344 c 1.218 0.05 2.284 0.832 2.698 1.978 c 0.414 1.146 0.094 2.43 -0.812 3.246 c -2.809 2.536 -5.545 4.43 -8.177 5.661 c 1.542 1.636 3.803 3.18 6.826 4.671 c 1.051 0.519 1.704 1.601 1.672 2.772 c -0.032 1.171 -0.743 2.217 -1.821 2.677 c -3.521 1.504 -7.248 2.259 -11.122 2.259 c -0.034 0 -0.068 0 -0.104 0 c 0.658 1.764 1.688 3.631 3.128 5.689 c 0.669 0.956 0.723 2.213 0.139 3.223 c -0.585 1.01 -1.698 1.585 -2.864 1.485 c -9.686 -0.866 -18.304 -4.36 -25.694 -10.404 c 0.127 3.037 1.373 5.463 4.279 9.519 c 0.712 0.993 0.75 2.318 0.097 3.351 C 54.182 89.68 53.219 90.196 52.203 90.196 z M 27.796 59.4 c 0.795 0 1.559 0.315 2.121 0.879 c 0.567 0.567 0.884 1.338 0.879 2.141 c -0.038 5.955 7.25 14.126 14.493 18.644 c -1.182 -3.388 -1.218 -6.875 -0.162 -11.937 c 0.227 -1.087 1.036 -1.96 2.103 -2.269 c 1.066 -0.308 2.216 -0.004 2.99 0.796 c 5.905 6.103 12.613 9.983 20.376 11.764 c -0.984 -2.21 -1.559 -4.337 -1.761 -6.478 c -0.087 -0.914 0.25 -1.817 0.913 -2.452 c 0.664 -0.634 1.58 -0.928 2.491 -0.802 c 2.025 0.284 4.007 0.324 5.929 0.123 c -2.521 -1.983 -4.266 -4.146 -5.346 -6.592 c -0.364 -0.825 -0.339 -1.771 0.071 -2.574 s 1.16 -1.381 2.042 -1.57 c 0.92 -0.198 1.884 -0.539 2.888 -1.021 c -8.963 -0.981 -15.955 -2.942 -21.624 -6.027 c -1.026 -0.558 -1.635 -1.661 -1.561 -2.827 c 0.075 -1.165 0.819 -2.182 1.909 -2.604 c 8.331 -3.233 16.063 -8.483 23.492 -15.971 c -2.603 -0.369 -5.312 -1.299 -7.914 -3.243 c -1.278 -0.955 -1.586 -2.742 -0.7 -4.069 c 1.575 -2.362 2.804 -5.062 3.761 -8.303 c -3.24 0.957 -5.94 2.186 -8.303 3.761 c -1.326 0.886 -3.114 0.577 -4.068 -0.7 c -1.943 -2.602 -2.874 -5.311 -3.243 -7.914 c -7.487 7.429 -12.737 15.161 -15.971 23.492 c -0.423 1.089 -1.439 1.833 -2.605 1.908 c -1.178 0.08 -2.27 -0.534 -2.827 -1.56 c -3.084 -5.669 -5.045 -12.66 -6.027 -21.623 c -0.481 1.003 -0.821 1.967 -1.019 2.887 c -0.19 0.882 -0.767 1.632 -1.571 2.042 c -0.804 0.41 -1.75 0.436 -2.575 0.071 c -2.45 -1.083 -4.616 -2.831 -6.602 -5.36 c -0.201 1.912 -0.156 3.885 0.134 5.943 c 0.128 0.909 -0.167 1.827 -0.802 2.491 c -0.634 0.664 -1.539 1 -2.452 0.914 c -2.141 -0.203 -4.269 -0.777 -6.478 -1.761 c 1.78 7.763 5.661 14.471 11.764 20.376 c 0.798 0.772 1.104 1.923 0.795 2.99 s -1.182 1.876 -2.269 2.103 c -5.059 1.056 -8.548 1.019 -11.936 -0.163 C 13.637 52.131 21.779 59.4 27.731 59.4 C 27.753 59.4 27.774 59.4 27.796 59.4 z" style="stroke: none; stroke-width: 1; stroke-dasharray: none; stroke-linecap: butt; stroke-linejoin: miter; stroke-miterlimit: 10; fill: rgb(0,0,0); fill-rule: nonzero; opacity: 1;" transform=" matrix(1 0 0 1 0 0) " stroke-linecap="round"/>
</g>
</svg>