<svg xmlns="http://www.w3.org/2000/svg" xmlns:xlink="http://www.w3.org/1999/xlink" version="1.1" width="256" height="256" viewBox="0 0 256 256" xml:space="preserve">
<g style="stroke: none; stroke-width: 0; stroke-dasharray: none; stroke-linecap: butt; stroke-linejoin: miter; stroke-miterlimit: 10; fill: none; fill-rule: nonzero; opacity: 1;" transform="translate(1.4065934065934016 1.4065934065934016) scale(2.81 2.81)">
	<path d="M 45 79.888 c -14.3 0 -24.35 -5.822 -28.297 -16.396 c -6.5 -17.407 4.574 -43.746 26.331 -62.627 c 1.128 -0.979 2.804 -0.979 3.933 0 c 21.757 18.882 32.831 45.22 26.331 62.627 C 69.35 74.065 59.3 79.888 45 79.888 z M 45 7.154 c -18.349 16.888 -28.053 39.843 -22.677 54.24 C 25.375 69.567 33.217 73.888 45 73.888 s 19.624 -4.32 22.677 -12.494 C 73.053 46.997 63.349 24.042 45 7.154 z" style="stroke: none; stroke-width: 1; stroke-dasharray: none; stroke-linecap: butt; stroke-linejoin: miter; stroke-miterlimit: 10; fill: rgb(0,0,0); fill-rule: nonzero; opacity: 1;" transform=" matrix(1 0 0 1 0 0) " stroke-linecap="round"/>
	<path d="M 45 90.131 c -1.657 0 -3 -1.343 -3 -3 V 27.963 c 0 -1.657 1.343 -3 3 -3 c 1.657 0 3 1.343 3 3 v 59.168 C 48 88.788 46.657 90.131 45 90.131 z" style="stroke: none; stroke-width: 1; stroke-dasharray: none; stroke-linecap: butt; stroke-linejoin: miter; stroke-miterlimit: 10; fill: rgb(0,0,0); fill-rule: nonzero; opacity: 1;" transform=" matrix(1 0 0 1 0 0) " stroke-linecap="round"/>
	<path d="M 45 69.733 c -0.752 0 -1.504 -0.281 -2.087 -0.846 L 27.361 53.816 c -1.19 -1.153 -1.219 -3.053 -0.066 -4.242 c 1.153 -1.189 3.052 -1.219 4.242 -0.066 l 15.551 15.071 c 1.189 1.153 1.22 3.053 0.066 4.242 C 46.566 69.429 45.783 69.733 45 69.733 z" style="stroke: none; stroke-width: 1; stroke-dasharray: none; stroke-linecap: butt; stroke-linejoin: miter; stroke-miterlimit: 10; fill: rgb(0,0,0); fill-rule: nonzero; opacity: 1;" transform=" matrix(1 0 0 1 0 0) " stroke-linecap="round"/>
	<path d="M 45 57.041 c -0.784 0 -1.566 -0.305 -2.155 -0.912 c -1.153 -1.189 -1.124 -3.089 0.066 -4.242 L 54.15 40.995 c 1.189 -1.153 3.088 -1.124 4.242 0.066 c 1.153 1.19 1.123 3.089 -0.066 4.242 L 47.088 56.195 C 46.505 56.76 45.752 57.041 45 57.041 z" style="stroke: none; stroke-width: 1; stroke-dasharray: none; stroke-linecap: butt; stroke-linejoin: miter; stroke-miterlimit: 10; fill: rgb(0,0,0); fill-rule: nonzero; opacity: 1;" transform=" matrix(1 0 0 1 0 0) " stroke-linecap="round"/>
	<path d="M 45 45.907 c -0.752 0 -1.504 -0.281 -2.087 -0.846 l -6.967 -6.751 c -1.189 -1.153 -1.22 -3.052 -0.066 -4.242 c 1.153 -1.188 3.052 -1.22 4.242 -0.066 l 6.967 6.751 c 1.189 1.153 1.22 3.052 0.066 4.242 C 46.566 45.602 45.783 45.907 45 45.907 z" style="stroke: none; stroke-width: 1; stroke-dasharray: none; stroke-linecap: butt; stroke-linejoin: miter; stroke-miterlimit: 10; fill: rgb(0,0,0); fill-rule: nonzero; opacity: 1;" transform=" matrix(1 0 0 1 0 0) " stroke-linecap="round"/>
</g>
</svg>