<svg xmlns="http://www.w3.org/2000/svg" xmlns:xlink="http://www.w3.org/1999/xlink" version="1.1" width="256" height="256" viewBox="0 0 256 256" xml:space="preserve">
<g style="stroke: none; stroke-width: 0; stroke-dasharray: none; stroke-linecap: butt; stroke-linejoin: miter; stroke-miterlimit: 10; fill: none; fill-rule: nonzero; opacity: 1;" transform="translate(1.4065934065934016 1.4065934065934016) scale(2.81 2.81)">
	<path d="M 30.735 87.451 c -0.575 0 -1.152 -0.083 -1.73 -0.257 c -2.339 -0.7 -5.196 -3.112 -5.514 -10.62 c -0.16 -3.8 0.361 -8.333 1.483 -13.056 C 14.7 67.273 3.795 68.335 1.159 62.307 c -0.979 -2.24 -0.987 -5.979 4.532 -11.077 c 2.336 -2.157 5.371 -4.282 8.832 -6.207 C 5.55 40.881 -1.611 34.918 0.316 29.224 c 0.783 -2.314 3.294 -5.085 10.807 -5.141 c 4.192 -0.04 9.176 0.785 14.329 2.318 c -1.35 -4.116 -2.184 -8.088 -2.399 -11.522 c -0.472 -7.5 2.115 -10.198 4.369 -11.141 c 2.254 -0.942 5.992 -0.892 11.002 4.708 c 2.081 2.326 4.121 5.326 5.964 8.737 c 1.331 -3.223 2.85 -6.09 4.468 -8.411 c 4.299 -6.162 8.003 -6.663 10.354 -5.998 c 2.35 0.664 5.244 3.031 5.681 10.533 c 0.212 3.659 -0.197 8.009 -1.165 12.561 c 5.494 -1.625 10.869 -2.459 15.265 -2.357 c 7.511 0.17 9.979 2.979 10.726 5.306 c 0.747 2.326 0.377 6.046 -5.631 10.559 c -3.667 2.756 -8.779 5.3 -14.464 7.207 c 4.224 3.397 7.773 7.093 10.125 10.566 c 4.213 6.221 3.353 9.86 1.889 11.817 c -1.463 1.956 -4.71 3.811 -11.869 1.528 c -2.174 -0.693 -4.552 -1.729 -6.993 -3.037 c 1.442 8.804 0.534 16.792 -4.685 18.469 c -2.331 0.747 -6.049 0.375 -10.56 -5.629 c -1.343 -1.789 -2.653 -3.955 -3.863 -6.372 C 40.248 81.526 35.585 87.451 30.735 87.451 z M 29.591 55.323 c 0.72 0 1.432 0.259 1.992 0.757 c 0.903 0.802 1.237 2.066 0.848 3.208 c -0.241 0.708 -0.473 1.43 -0.694 2.167 c -1.604 5.351 -2.425 10.769 -2.252 14.865 c 0.145 3.448 0.93 4.834 1.252 5.117 c 1.401 -0.123 6.369 -5.18 9.913 -16.468 c 0.387 -1.231 1.517 -2.078 2.808 -2.101 c 1.29 -0.005 2.451 0.782 2.882 1.999 c 1.662 4.698 3.787 8.897 5.986 11.824 c 2.073 2.758 3.505 3.455 3.931 3.506 c 1.054 -0.865 2.285 -7.306 -0.868 -18.205 c -0.353 -1.221 0.102 -2.533 1.136 -3.273 c 1.033 -0.742 2.421 -0.747 3.464 -0.02 c 4.034 2.821 8.155 4.979 11.601 6.077 c 3.288 1.049 4.857 0.785 5.236 0.582 c 0.386 -1.419 -2.82 -8.063 -12.703 -15.452 c -0.919 -0.686 -1.887 -1.368 -2.881 -2.025 c -0.999 -0.661 -1.508 -1.852 -1.298 -3.031 c 0.212 -1.179 1.104 -2.119 2.27 -2.392 c 1.568 -0.366 3.163 -0.809 4.742 -1.316 c 5.319 -1.709 10.249 -4.102 13.527 -6.564 c 2.759 -2.073 3.456 -3.505 3.507 -3.931 c -0.931 -1.136 -8.204 -2.375 -19.954 1.401 c -0.001 0 -0.001 0 -0.001 0 c -1.158 0.372 -2.338 0.792 -3.506 1.248 c -1.07 0.418 -2.285 0.187 -3.127 -0.592 c -0.843 -0.779 -1.167 -1.972 -0.834 -3.071 c 0.108 -0.359 0.214 -0.721 0.317 -1.086 c 1.518 -5.37 2.253 -10.801 2.016 -14.894 c -0.2 -3.445 -1.007 -4.818 -1.334 -5.097 c -1.463 0.147 -6.516 5.52 -9.873 17.396 c -0.013 0.044 -0.031 0.105 -0.046 0.149 c -0.398 1.194 -1.499 2.012 -2.757 2.049 c -1.26 0.054 -2.405 -0.715 -2.873 -1.883 c -0.121 -0.301 -0.244 -0.603 -0.371 -0.906 c -2.157 -5.153 -4.961 -9.861 -7.695 -12.916 c -2.301 -2.572 -3.787 -3.144 -4.216 -3.159 c -1.053 1.026 -1.664 8.378 3.101 19.763 c 0.157 0.375 0.317 0.745 0.48 1.114 c 0.494 1.118 0.26 2.425 -0.592 3.302 c -0.852 0.878 -2.151 1.151 -3.284 0.687 c -1.136 -0.463 -2.313 -0.901 -3.498 -1.302 c -5.292 -1.79 -10.675 -2.794 -14.776 -2.768 c -3.453 0.026 -4.865 0.763 -5.159 1.075 c 0.071 1.467 5.18 6.789 16.873 10.744 c 0.051 0.018 0.103 0.036 0.153 0.056 c 1.127 0.451 1.876 1.539 1.889 2.753 c 0.013 1.214 -0.703 2.318 -1.82 2.794 l -0.548 0.236 c -5.12 2.238 -9.783 5.116 -12.794 7.898 c -2.537 2.342 -3.084 3.837 -3.092 4.267 c 1.042 1.037 8.403 1.532 19.711 -3.411 c 0.647 -0.283 1.286 -0.575 1.916 -0.876 C 28.709 55.42 29.152 55.323 29.591 55.323 z M 63.119 29.192 h 0.01 H 63.119 z" style="stroke: none; stroke-width: 1; stroke-dasharray: none; stroke-linecap: butt; stroke-linejoin: miter; stroke-miterlimit: 10; fill: rgb(0,0,0); fill-rule: nonzero; opacity: 1;" transform=" matrix(1 0 0 1 0 0) " stroke-linecap="round"/>
	<circle cx="45.004000000000005" cy="44.994" r="8.014" style="stroke: none; stroke-width: 1; stroke-dasharray: none; stroke-linecap: butt; stroke-linejoin: miter; stroke-miterlimit: 10; fill: rgb(0,0,0); fill-rule: nonzero; opacity: 1;" transform="  matrix(1 0 0 1 0 0) "/>
</g>
</svg>